<svg width="109" height="40" viewBox="0 0 109 40" fill="none" xmlns="http://www.w3.org/2000/svg">
<path fill-rule="evenodd" clip-rule="evenodd" d="M89.949 6.90904C90.9823 6.90904 91.8199 6.07143 91.8199 5.03814C91.8199 4.00484 90.9823 3.16724 89.949 3.16724C88.9157 3.16724 88.0779 4.00484 88.0779 5.03814C88.0779 6.07143 88.9157 6.90904 89.949 6.90904Z" fill="white"/>
<path fill-rule="evenodd" clip-rule="evenodd" d="M63.6322 8.59917C61.6874 8.46163 59.8464 9.21793 58.4601 10.5404V0.37085H53.9526V2.79307H55.9761V14.5856C51.2169 21.1442 48.4996 21.1452 47.0216 21.1452C46.9502 21.1452 46.868 21.1419 46.7697 21.1351C45.6239 21.0557 44.5731 20.516 43.8107 19.6153C42.9512 18.5995 42.5371 17.2065 42.6749 15.7936C42.9485 12.9859 45.2586 10.8463 47.8236 11.0236C49.5825 11.1453 51.0542 12.3269 51.664 14.1073L53.9629 13.3199C53.045 10.6398 50.7009 8.78685 47.9912 8.5993C44.1263 8.33223 40.6562 11.4535 40.2561 15.558C40.0554 17.6203 40.6748 19.6713 41.9557 21.1849C43.1457 22.5911 44.7959 23.4343 46.602 23.5592C46.7565 23.5699 46.8937 23.5752 47.0216 23.5752C48.6943 23.5752 51.5971 23.574 55.9761 18.5073V23.128H58.4601V15.7941L58.466 15.7946C58.7331 12.9871 60.9718 10.8466 63.4603 11.023C65.7437 11.185 67.4632 13.2521 67.46 15.833V23.128H69.8899V15.8345C69.895 11.9631 67.2048 8.85263 63.6322 8.59917Z" fill="white"/>
<path fill-rule="evenodd" clip-rule="evenodd" d="M81.5222 15.2761C78.3144 15.2761 76.5529 14.0628 75.1 12.7316C75.9999 11.6864 77.2704 11.0348 78.6354 11.0348C78.7333 11.0348 78.8326 11.0381 78.9315 11.0452C80.074 11.1242 81.1214 11.6627 81.8812 12.5605C82.4908 13.2808 82.8704 14.1928 82.9922 15.1655C82.5223 15.2372 82.032 15.2761 81.5222 15.2761ZM77.8811 21.1244C76.7387 21.0454 75.6913 20.5075 74.9314 19.6096C74.0747 18.5973 73.6622 17.2087 73.7994 15.8002C73.828 15.5069 73.8825 15.2227 73.9536 14.9458C75.7338 16.4543 77.9705 17.6983 81.5222 17.6983C81.9363 17.6983 82.339 17.6721 82.7354 17.6328C82.003 19.7825 80.0284 21.2818 77.8811 21.1244ZM85.3591 17.0574C86.6683 16.5883 87.7987 15.8698 88.7107 14.9655V23.1179H91.1329C91.1329 23.1179 91.1329 10.479 91.1329 9.04007H88.7066C88.6626 11.5445 87.3834 13.4223 85.3299 14.4396C85.0972 13.1635 84.5532 11.9679 83.7305 10.996C82.5444 9.59419 80.8996 8.75353 79.0989 8.62858C75.2347 8.3722 71.7863 11.4744 71.3885 15.5656C71.1879 17.6207 71.8058 19.6654 73.0826 21.1741C74.2686 22.576 75.9137 23.4165 77.7138 23.5411C77.8684 23.5519 78.0216 23.5571 78.1751 23.5571C81.6961 23.5571 84.7838 20.7609 85.3591 17.0574Z" fill="white"/>
<path fill-rule="evenodd" clip-rule="evenodd" d="M90.0288 37.2266C87.203 37.2266 83.0217 36.1991 83.0217 33.9935C83.0217 32.7029 84.8447 31.3314 87.8984 30.3246C91.5302 29.1268 96.697 28.4569 102.901 28.374C102.14 32.9224 97.4472 37.2266 90.0288 37.2266ZM105.394 25.9462C105.267 24.1101 104.826 22.4567 104.076 21.0189C103.155 19.2543 101.247 17.5385 98.9504 17.4443C100.925 15.265 102.993 13.1674 105.135 11.1724L104.274 9.04004H93.0696V13.4772H95.5554V11.4624C96.7874 11.462 100.461 11.4652 101.331 11.4661C98.5601 14.1998 95.8898 17.1311 93.4421 20.1428L95.175 21.8223C96.3593 20.7972 97.4341 19.9423 98.5951 19.8674C100.022 19.7809 101.323 20.9801 101.928 22.1393C102.492 23.2198 102.844 24.5218 102.964 25.9509C89.1327 26.1245 80.5995 29.1727 80.5995 33.9935C80.5995 35.4014 81.2556 37.3458 84.3819 38.6128C86.7549 39.5741 89.304 39.6488 90.0288 39.6488C98.9962 39.6488 104.607 34.116 105.348 28.3679C106.628 28.3738 107.803 28.3896 108.978 28.414V25.9913C107.818 25.9675 106.657 25.9519 105.394 25.9462Z" fill="white"/>
<path fill-rule="evenodd" clip-rule="evenodd" d="M17.0637 0C15.4254 0 14.0923 1.33294 14.0923 2.97125C14.0923 4.60956 15.4254 5.9425 17.0637 5.9425C18.7021 5.9425 20.0349 4.60956 20.0349 2.97125C20.0349 1.33294 18.7021 0 17.0637 0Z" fill="white"/>
<path fill-rule="evenodd" clip-rule="evenodd" d="M17.0637 26.228C15.4254 26.228 14.0923 27.5608 14.0923 29.1992C14.0923 30.8376 15.4254 32.1705 17.0637 32.1705C18.7021 32.1705 20.0349 30.8376 20.0349 29.1992C20.0349 27.5608 18.7021 26.228 17.0637 26.228Z" fill="white"/>
<path fill-rule="evenodd" clip-rule="evenodd" d="M30.1777 12.9287C28.5393 12.9287 27.2063 14.2617 27.2063 15.9001C27.2063 17.5384 28.5393 18.8713 30.1777 18.8713C31.816 18.8713 33.1489 17.5384 33.1489 15.9001C33.1489 14.2617 31.816 12.9287 30.1777 12.9287Z" fill="white"/>
<path fill-rule="evenodd" clip-rule="evenodd" d="M6.92065 15.9001C6.92065 14.2617 5.58771 12.9287 3.9494 12.9287C2.31096 12.9287 0.978279 14.2617 0.978279 15.9001C0.978279 17.5384 2.31096 18.8713 3.9494 18.8713C5.58771 18.8713 6.92065 17.5384 6.92065 15.9001Z" fill="white"/>
<path fill-rule="evenodd" clip-rule="evenodd" d="M26.3365 9.78357C27.1301 9.78357 27.8762 9.47451 28.4375 8.91326C28.9987 8.35215 29.3078 7.60602 29.3078 6.81232C29.3078 6.01874 28.9987 5.27262 28.4375 4.71137C27.8762 4.15013 27.1301 3.84106 26.3365 3.84106C25.5428 3.84106 24.7967 4.15013 24.2354 4.71137C23.6743 5.27249 23.3653 6.01861 23.3653 6.81232C23.3653 7.60602 23.6743 8.35215 24.2356 8.91326C24.7968 9.47451 25.5428 9.78357 26.3365 9.78357Z" fill="white"/>
<path fill-rule="evenodd" clip-rule="evenodd" d="M5.68949 23.2574C5.12825 23.8186 4.81919 24.5647 4.81931 25.3585C4.81931 26.1521 5.12837 26.8982 5.68962 27.4595C6.25086 28.0207 6.99698 28.3298 7.79056 28.3298C8.58414 28.3298 9.33026 28.0207 9.89151 27.4595C11.05 26.301 11.05 24.4161 9.89151 23.2576C8.73301 22.0992 6.84812 22.0989 5.68949 23.2574Z" fill="white"/>
<path fill-rule="evenodd" clip-rule="evenodd" d="M26.4676 22.2561C25.674 22.2561 24.9276 22.5653 24.3665 23.1264C23.2082 24.2848 23.2082 26.1699 24.3665 27.3283C24.9276 27.8895 25.6739 28.1986 26.4676 28.1986C27.2611 28.1986 28.0073 27.8895 28.5687 27.3283C29.7269 26.1698 29.7269 24.2847 28.5687 23.1264C28.0073 22.5652 27.2612 22.2561 26.4676 22.2561Z" fill="white"/>
<path fill-rule="evenodd" clip-rule="evenodd" d="M7.92144 3.71021C7.12786 3.71021 6.38161 4.01939 5.82036 4.58051C5.25912 5.14175 4.95019 5.88788 4.95019 6.68146C4.95019 7.47516 5.25912 8.22128 5.82036 8.7824C6.3998 9.36184 7.16056 9.65143 7.92131 9.65131C8.68219 9.65131 9.44307 9.36159 10.0224 8.7824C11.1809 7.6239 11.1809 5.73888 10.0225 4.58051C9.46114 4.01926 8.71489 3.71021 7.92144 3.71021Z" fill="white"/>
</svg>
