<svg width="19" height="19" viewBox="0 0 19 19" fill="none" xmlns="http://www.w3.org/2000/svg">
<path d="M16.8653 18.6334L0.366116 2.13421C0.131696 1.89979 1.19374e-07 1.58185 7.19492e-08 1.25033C2.45248e-08 0.918807 0.131696 0.600865 0.366116 0.366444C0.600537 0.132024 0.918479 0.000327786 1.25 0.000327833C1.58152 0.000327881 1.89946 0.132024 2.13388 0.366445L18.633 16.8656C18.8675 17.1 18.9992 17.418 18.9992 17.7495C18.9992 18.081 18.8675 18.399 18.633 18.6334C18.3986 18.8678 18.0807 18.9995 17.7492 18.9995C17.4176 18.9995 17.0997 18.8678 16.8653 18.6334Z" fill="black"/>
<path d="M18.633 2.13388L2.13388 18.633C1.89946 18.8675 1.58152 18.9992 1.25 18.9992C0.918479 18.9992 0.600537 18.8675 0.366116 18.633C0.131696 18.3986 -4.74244e-08 18.0807 0 17.7492C4.74244e-08 17.4176 0.131696 17.0997 0.366116 16.8653L16.8653 0.366117C17.0997 0.131696 17.4176 4.74244e-08 17.7492 0C18.0807 -4.74244e-08 18.3986 0.131696 18.633 0.366117C18.8675 0.600537 18.9992 0.918479 18.9992 1.25C18.9992 1.58152 18.8675 1.89946 18.633 2.13388Z" fill="black"/>
</svg>
