<svg width="16" height="9" viewBox="0 0 16 9" fill="none" xmlns="http://www.w3.org/2000/svg">
<path d="M7.55186 8.68472C7.42111 8.68533 7.29156 8.6602 7.1708 8.61081C7.05005 8.56142 6.94052 8.48876 6.84864 8.39709L0.214535 1.86011C0.0822177 1.66936 0.0225078 1.4387 0.045936 1.20881C0.0693642 0.978919 0.174426 0.764563 0.342591 0.60355C0.510756 0.442536 0.731222 0.345208 0.965105 0.328731C1.19899 0.312253 1.43126 0.377686 1.62097 0.513487L7.55186 6.31833L13.4827 0.513487C13.6698 0.394003 13.8921 0.33985 14.1141 0.359706C14.3361 0.379562 14.5448 0.472278 14.707 0.622994C14.8691 0.77371 14.9752 0.973698 15.0082 1.1909C15.0413 1.40811 14.9993 1.62996 14.8892 1.82088L8.25507 8.35787C8.16662 8.45666 8.05862 8.53661 7.9377 8.59281C7.81678 8.64901 7.68548 8.68029 7.55186 8.68472Z" fill="#B700DB"/>
</svg>
