<svg width="41" height="41" viewBox="0 0 41 41" fill="none" xmlns="http://www.w3.org/2000/svg">
<circle cx="20.801" cy="20.7915" r="20" fill="white"/>
<g clip-path="url(#clip0)">
<path fill-rule="evenodd" clip-rule="evenodd" d="M28.9281 12.6326C26.9108 10.613 24.228 9.50022 21.3699 9.49904C15.4805 9.49904 10.6873 14.292 10.685 20.183C10.6842 22.0662 11.1761 23.9045 12.1112 25.5248L10.5953 31.0615L16.2596 29.5757C17.8203 30.4271 19.5774 30.8757 21.3655 30.8762H21.37C27.2588 30.8762 32.0524 26.0828 32.0547 20.1916C32.0558 17.3365 30.9455 14.6521 28.9281 12.6326ZM21.3699 29.0718H21.3662C19.7727 29.0711 18.2099 28.6429 16.8461 27.8339L16.522 27.6413L13.1608 28.5231L14.0579 25.246L13.8467 24.91C12.9577 23.496 12.4882 21.8617 12.489 20.1837C12.4909 15.2872 16.4749 11.3036 21.3734 11.3036C23.7455 11.3044 25.9753 12.2294 27.652 13.908C29.3287 15.5867 30.2515 17.8179 30.2507 20.1909C30.2486 25.0878 26.2649 29.0718 21.3699 29.0718ZM26.2412 22.4205C25.9743 22.2868 24.6616 21.6411 24.4168 21.5519C24.1723 21.4628 23.9941 21.4184 23.8163 21.6856C23.6383 21.9528 23.1267 22.5542 22.9709 22.7323C22.815 22.9105 22.6595 22.9328 22.3925 22.7991C22.1254 22.6655 21.2652 22.3835 20.2454 21.474C19.4518 20.766 18.9161 19.8918 18.7602 19.6246C18.6047 19.3572 18.7589 19.2266 18.8774 19.0798C19.1664 18.7209 19.4558 18.3446 19.5447 18.1665C19.6338 17.9884 19.5892 17.8324 19.5224 17.6988C19.4558 17.5652 18.9219 16.2511 18.6994 15.7164C18.4825 15.196 18.2626 15.2663 18.0986 15.2582C17.9431 15.2504 17.765 15.2488 17.587 15.2488C17.409 15.2488 17.1198 15.3155 16.875 15.583C16.6303 15.8503 15.9407 16.4961 15.9407 17.8102C15.9407 19.1243 16.8973 20.3937 17.0308 20.5719C17.1642 20.7501 18.9134 23.4468 21.5915 24.6031C22.2285 24.8784 22.7257 25.0425 23.1135 25.1655C23.7531 25.3687 24.335 25.3401 24.7951 25.2714C25.3081 25.1946 26.3745 24.6254 26.5972 24.0019C26.8196 23.3782 26.8196 22.8437 26.7527 22.7323C26.6861 22.6209 26.5081 22.5542 26.2412 22.4205Z" fill="#727D89"/>
</g>
<defs>
<clipPath id="clip0">
<rect width="23" height="23" fill="white" transform="translate(9.80103 8.7915)"/>
</clipPath>
</defs>
</svg>
