<svg width="41" height="41" viewBox="0 0 41 41" fill="none" xmlns="http://www.w3.org/2000/svg">
<circle cx="20.801" cy="20.7915" r="20" fill="white"/>
<path d="M25.5575 11.7915H17.0442C14.1531 11.7915 11.801 14.1437 11.801 17.0348V25.5481C11.801 28.4393 14.1531 30.7914 17.0442 30.7914H25.5575C28.4488 30.7914 30.8009 28.4392 30.8009 25.5481V17.0348C30.801 14.1437 28.4488 11.7915 25.5575 11.7915ZM29.1153 25.5481C29.1153 27.5098 27.5193 29.1056 25.5576 29.1056H17.0442C15.0826 29.1057 13.4868 27.5098 13.4868 25.5481V17.0348C13.4868 15.0732 15.0826 13.4773 17.0442 13.4773H25.5575C27.5192 13.4773 29.1152 15.0732 29.1152 17.0348L29.1153 25.5481Z" fill="#727D89"/>
<path d="M21.3008 16.396C18.6012 16.396 16.405 18.5922 16.405 21.2918C16.405 23.9913 18.6012 26.1874 21.3008 26.1874C24.0004 26.1874 26.1966 23.9913 26.1966 21.2918C26.1966 18.5922 24.0004 16.396 21.3008 16.396ZM21.3008 24.5015C19.5309 24.5015 18.0908 23.0616 18.0908 21.2917C18.0908 19.5216 19.5308 18.0816 21.3008 18.0816C23.0709 18.0816 24.5108 19.5216 24.5108 21.2917C24.5108 23.0616 23.0708 24.5015 21.3008 24.5015Z" fill="#727D89"/>
<path d="M26.4015 14.9663C26.0767 14.9663 25.7577 15.0978 25.5283 15.3282C25.2978 15.5574 25.1653 15.8766 25.1653 16.2025C25.1653 16.5274 25.2979 16.8465 25.5283 17.0769C25.7575 17.3061 26.0767 17.4388 26.4015 17.4388C26.7274 17.4388 27.0455 17.3061 27.2758 17.0769C27.5062 16.8465 27.6377 16.5273 27.6377 16.2025C27.6377 15.8766 27.5062 15.5574 27.2758 15.3282C27.0466 15.0978 26.7274 14.9663 26.4015 14.9663Z" fill="#727D89"/>
</svg>
