<svg width="41" height="41" viewBox="0 0 41 41" fill="none" xmlns="http://www.w3.org/2000/svg">
<circle cx="20.801" cy="20.7915" r="20" fill="white"/>
<path d="M30.5212 10.5913H12.2812C11.6776 10.5946 11.0996 10.824 10.6728 11.2298C10.246 11.6356 10.0046 12.1851 10.0012 12.7591V27.6236C10.0046 28.1975 10.246 28.747 10.6728 29.1528C11.0996 29.5586 11.6776 29.7881 12.2812 29.7913H30.5212C31.1249 29.7881 31.7028 29.5586 32.1296 29.1528C32.5565 28.747 32.7978 28.1975 32.8012 27.6236V12.7591C32.7978 12.1851 32.5565 11.6356 32.1296 11.2298C31.7028 10.824 31.1249 10.5946 30.5212 10.5913ZM12.2812 12.4494H30.5212C30.6076 12.4494 30.6905 12.482 30.7515 12.5401C30.8126 12.5982 30.8469 12.6769 30.8469 12.7591V14.6667L21.4012 19.1508L11.9555 14.6667V12.7591C11.9555 12.6769 11.9898 12.5982 12.0509 12.5401C12.112 12.482 12.1948 12.4494 12.2812 12.4494ZM30.5212 27.9332H12.2812C12.1948 27.9332 12.112 27.9006 12.0509 27.8425C11.9898 27.7845 11.9555 27.7057 11.9555 27.6236V16.7353L20.9582 21.0212C21.0958 21.0867 21.2474 21.1207 21.4012 21.1207C21.555 21.1207 21.7067 21.0867 21.8442 21.0212L30.8469 16.7353V27.6236C30.8469 27.7057 30.8126 27.7845 30.7515 27.8425C30.6905 27.9006 30.6076 27.9332 30.5212 27.9332Z" fill="#727D89"/>
</svg>
