<svg width="242" height="256" viewBox="0 0 242 256" fill="none" xmlns="http://www.w3.org/2000/svg">
<path d="M173.116 234.292L176.809 237.943C177.212 238.332 177.75 238.552 178.313 238.56C178.594 238.561 178.873 238.507 179.133 238.401C179.392 238.296 179.628 238.14 179.827 237.944C180.026 237.747 180.183 237.514 180.29 237.257C180.397 237 180.452 236.725 180.451 236.447C180.443 235.89 180.22 235.358 179.826 234.96L176.133 231.308C175.937 231.11 175.702 230.952 175.443 230.844C175.184 230.737 174.905 230.681 174.624 230.681C174.343 230.681 174.065 230.737 173.806 230.844C173.547 230.952 173.312 231.11 173.116 231.308C172.916 231.503 172.758 231.735 172.649 231.99C172.541 232.245 172.484 232.519 172.483 232.796C172.493 233.356 172.719 233.891 173.116 234.292Z" fill="#FAFAFA"/>
<path d="M186.519 179.23C183.769 179.524 180.994 179.524 178.244 179.23C180.994 178.937 183.769 178.937 186.519 179.23Z" fill="#455A64"/>
<path d="M215.414 85.0452C213.952 80.6589 216.594 64.9305 213.114 64.9052C208.669 64.8629 209.943 82.6534 209.934 84.2761C209.926 85.8988 207.6 85.8481 207.686 84.4114C207.806 82.3492 208.541 62.0232 204.061 62.3781C201.59 62.5725 201.907 67.0096 201.907 67.0096C201.907 67.0096 203.283 87.3441 201.18 87.4455C199.077 87.5469 198.325 75.6809 198.154 71.5058C197.983 67.5082 196.281 65.9193 194.418 67.28C192.554 68.6407 192.93 80.6589 193.033 84.6734C193.135 88.6879 193.614 99.6833 188.921 94.3335C184.227 88.9837 178.662 86.575 176.678 86.9553C174.695 87.3356 174.627 90.1669 176.636 91.0881C178.26 91.8318 180.602 93.894 182.295 95.5167C183.606 96.9172 184.754 98.4595 185.715 100.114C187.031 102.197 187.988 104.482 188.545 106.876C189.01 108.758 189.875 110.521 191.082 112.048C192.289 113.575 193.811 114.831 195.546 115.733L195.324 123.187L216.996 121.328L217.415 107.231C217.637 96.4548 219.543 89.2034 220.689 82.7971C222.527 72.5792 221.193 72.2665 219.954 72.3256C217.252 72.4186 216.85 89.3217 215.414 85.0452Z" fill="#B78876"/>
<path d="M215.413 98.872C214.408 99.0579 213.414 99.3034 212.438 99.6073C210.128 100.456 208.155 102.017 206.813 104.061C206.412 104.685 206.077 105.348 205.813 106.039L205.685 106.36L205.42 106.14C203.917 104.902 202.219 103.917 200.393 103.225C199.025 102.701 198.153 102.523 198.17 102.447C198.969 102.48 199.758 102.643 200.504 102.929C202.412 103.54 204.187 104.5 205.736 105.76L205.343 105.87C205.612 105.143 205.959 104.446 206.377 103.791C207.145 102.624 208.125 101.606 209.267 100.791C210.2 100.133 211.229 99.6196 212.319 99.2693C213.051 99.0376 213.809 98.8929 214.576 98.8382C214.855 98.808 215.137 98.8194 215.413 98.872Z" fill="#AA6550"/>
<path d="M212.397 113.943C210.756 114.758 208.97 115.252 207.14 115.397C205.327 115.699 203.473 115.656 201.677 115.27C201.677 115.118 204.113 115.27 207.071 114.89C210.029 114.509 212.354 113.8 212.397 113.943Z" fill="#AA6550"/>
<path d="M154.229 114.585C154.229 114.585 165.523 120.29 171.464 128.505C177.406 136.72 195.35 162.193 195.35 162.193L192.786 123.535L220.502 119.986C220.502 119.986 228.563 158.922 230.453 172.385C232.214 184.987 231.479 197.385 219.031 204.146C204.344 212.125 187.665 201.349 182.116 197.258C175.226 192.187 162.505 183.896 162.505 183.896L154.229 114.585Z" fill="#E0E0E0"/>
<path d="M140.303 109.759L132.395 101.028L97.8309 98.4082L93.3512 105.567L105.465 180.312L100.011 255.819H145.047L140.303 109.759Z" fill="#B700DB"/>
<g opacity="0.3">
<path opacity="0.3" d="M102.099 237.858C103.287 236.607 105.236 234.875 106.972 234.841C119.419 234.57 132.132 233.336 144.588 233.066L145.066 255.817L139.005 253.011C138.663 250.476 138.227 247.34 135.842 246.25C134.491 245.616 132.91 245.861 131.448 246.149C126.951 246.994 122.488 248.177 117.915 248.456C113.341 248.735 108.553 248.084 104.715 245.608C103.349 244.813 102.252 243.637 101.56 242.227C101.221 241.524 101.092 240.739 101.187 239.965C101.283 239.192 101.599 238.461 102.099 237.858Z" fill="black"/>
</g>
<path d="M132.396 101.028L154.538 115.193L159.223 130.389L163.702 177.768L158.761 226.255L167.293 255.818H145.048L145.006 244.155L142.629 162.057L140.304 109.759L132.396 101.028Z" fill="#E0E0E0"/>
<path d="M144.321 173.373C144.457 173.178 144.58 172.975 144.689 172.764C144.928 172.325 145.262 171.725 145.672 170.964C146.082 170.203 146.476 169.164 146.997 168.006C147.236 167.423 147.442 166.781 147.681 166.104C147.92 165.428 148.185 164.718 148.382 163.949C150.246 157.864 151.485 149.083 151.22 139.389C151.22 138.637 151.169 137.893 151.118 137.158V137.031L150.998 136.98L147.527 135.535L147.578 135.89L151.041 133.143L151.118 133.084V133C151.149 129.667 150.614 126.353 149.536 123.196C148.681 120.331 147.715 117.863 146.877 115.835C146.04 113.806 145.304 112.217 144.783 111.135C144.526 110.595 144.321 110.189 144.176 109.91C144.108 109.765 144.028 109.627 143.937 109.496C143.98 109.647 144.038 109.794 144.108 109.935L144.663 111.195C145.142 112.285 145.834 113.891 146.638 115.927C147.442 117.964 148.348 120.441 149.203 123.297C150.239 126.416 150.747 129.683 150.707 132.966L150.784 132.822L147.313 135.569L147.04 135.789L147.365 135.924L150.827 137.369L150.699 137.192C150.75 137.91 150.776 138.654 150.801 139.397C151.066 149.049 149.886 157.797 148.1 163.907C147.912 164.676 147.655 165.386 147.433 166.062C147.211 166.738 147.014 167.381 146.783 167.964C146.287 169.122 145.928 170.144 145.527 170.939C145.125 171.733 144.843 172.316 144.62 172.764C144.504 172.959 144.404 173.162 144.321 173.373Z" fill="#263238"/>
<path d="M159.871 204.221C159.947 204.011 160.01 203.797 160.059 203.579C160.179 203.123 160.333 202.506 160.53 201.737C160.726 200.967 160.966 199.945 161.196 198.795C161.427 197.646 161.726 196.336 161.966 194.874C162.205 193.412 162.504 191.814 162.727 190.09C162.949 188.366 163.171 186.515 163.376 184.571C163.735 180.675 163.975 176.373 163.975 171.852C163.975 167.33 163.701 163.037 163.334 159.174C163.111 157.231 162.923 155.38 162.65 153.656C162.376 151.931 162.145 150.334 161.88 148.872C161.615 147.41 161.333 146.108 161.094 144.959C160.854 143.81 160.624 142.821 160.418 142.018C160.213 141.215 160.059 140.632 159.94 140.175C159.898 139.957 159.833 139.745 159.743 139.542C159.766 139.761 159.803 139.978 159.854 140.192C159.957 140.657 160.085 141.283 160.256 142.06C160.427 142.838 160.649 143.852 160.863 145.01C161.077 146.168 161.359 147.469 161.581 148.931C161.803 150.393 162.085 151.982 162.299 153.706C162.513 155.43 162.735 157.264 162.94 159.208C163.282 163.096 163.53 167.381 163.547 171.886C163.564 176.39 163.316 180.675 162.983 184.563C162.786 186.507 162.624 188.349 162.368 190.073C162.111 191.798 161.906 193.395 161.667 194.849C161.427 196.302 161.171 197.621 160.966 198.77C160.76 199.919 160.547 200.917 160.367 201.728C160.188 202.539 160.077 203.123 159.974 203.587C159.918 203.795 159.884 204.007 159.871 204.221Z" fill="#263238"/>
<path d="M154.511 243.877C154.744 244.571 155.066 245.232 155.469 245.846C156.36 247.372 157.375 248.825 158.504 250.19C159.636 251.556 160.88 252.828 162.222 253.993C162.753 254.506 163.348 254.949 163.992 255.312C163.505 254.766 162.982 254.252 162.428 253.773C161.161 252.557 159.963 251.273 158.837 249.928C157.722 248.579 156.686 247.168 155.734 245.702C155.367 245.068 154.959 244.458 154.511 243.877Z" fill="#263238"/>
<g opacity="0.3">
<path opacity="0.3" d="M143.455 204.205C141.113 202.996 138.249 203.63 135.761 204.568C133.274 205.506 130.846 206.766 128.204 206.74C124.613 206.74 119.527 205.413 117.654 202.396C115.594 198.939 114.065 195.2 113.115 191.299C110.259 178.309 109.61 166.908 106.754 153.909C105.198 146.844 103.224 138.697 100.573 131.935C98.0086 125.402 95.6149 118.641 93.5973 111.922C93.9564 127.135 94.3154 142.466 96.6921 157.561C98.2309 167.254 100.59 176.805 101.881 186.524C102.984 194.849 103.292 203.258 103.591 211.651L111.602 221.336L133.684 221.775L145.217 207.07L143.455 204.205Z" fill="black"/>
</g>
<path d="M63.4204 113.933C59.2518 115.529 55.5438 118.114 52.6221 121.459C49.7004 124.804 47.6545 128.808 46.6642 133.118C40.184 161.38 29.0874 198.964 28.9164 211.092C28.6941 226.533 35.5248 237.106 44.4415 239.058C51.4944 240.596 115.399 237.139 115.399 237.139L118.425 210.771L66.6263 206.063L73.7135 166.907L66.6947 112.673L63.4204 113.933Z" fill="#E0E0E0"/>
<path d="M66.7138 112.676L81.0335 106.895L97.3878 98.1558L97.5417 98.629C95.6951 101.756 93.7288 107.529 94.4213 111.087L106.971 175.843L104.124 223.171L100.012 255.837H58.7803L73.7326 221.042L66.3718 155.694L66.7138 112.676Z" fill="#E0E0E0"/>
<path d="M74.1475 162.953C74.0871 163.09 74.0468 163.235 74.0278 163.384C73.968 163.722 73.8825 164.136 73.7799 164.643C73.5661 165.793 73.2755 167.356 72.925 169.266C72.2239 173.23 71.2835 178.605 70.232 184.547C69.1805 190.488 68.3256 195.88 67.6673 199.852C67.3681 201.771 67.1202 203.343 66.9321 204.501L66.7611 205.769C66.7365 205.917 66.7365 206.068 66.7611 206.216C66.8113 206.074 66.8485 205.926 66.8722 205.777C66.9492 205.447 67.0261 205.033 67.1373 204.526C67.351 203.377 67.6417 201.813 67.9922 199.903C68.7103 195.999 69.702 190.606 70.7022 184.623C71.7024 178.639 72.6343 173.238 73.2669 169.317C73.5661 167.398 73.8141 165.826 73.9936 164.669C74.062 164.153 74.1133 163.739 74.156 163.401C74.1666 163.252 74.1637 163.102 74.1475 162.953Z" fill="#263238"/>
<path d="M89.5388 102.716C89.5388 102.716 89.5388 102.767 89.4789 102.868C89.4191 102.97 89.402 103.156 89.3422 103.342C89.2396 103.764 89.0515 104.373 88.8891 105.184C88.3785 107.484 88.0131 109.812 87.7948 112.157C87.4624 115.691 87.371 119.243 87.5212 122.789C87.658 126.829 88.094 131.299 88.7095 136.032V136.184H88.8549L93.5397 137.03L93.3773 136.742C93.1123 137.452 92.8301 138.221 92.6164 139.007C91.3245 144.19 91.5109 149.626 93.155 154.71C94.4638 158.832 96.3118 162.767 98.652 166.416C100.601 169.543 102.371 171.951 103.585 173.625L105.004 175.526L105.38 176.017C105.466 176.118 105.517 176.177 105.525 176.169C105.492 176.107 105.455 176.048 105.414 175.991C105.329 175.848 105.209 175.687 105.072 175.476L103.722 173.523C102.55 171.833 100.823 169.399 98.9085 166.255C96.6215 162.612 94.8144 158.696 93.5312 154.6C91.9327 149.582 91.7611 144.226 93.0353 139.117C93.2405 138.348 93.5141 137.596 93.7705 136.903L93.8646 136.658L93.6167 136.615L88.9318 135.77L89.1028 135.948C88.4787 131.223 88.0342 126.769 87.8632 122.738C87.6949 119.208 87.7549 115.671 88.0427 112.148C88.235 109.811 88.5575 107.486 89.0087 105.184C89.1541 104.339 89.3165 103.756 89.3935 103.325C89.3935 103.139 89.4618 102.978 89.4875 102.843C89.5085 102.802 89.5257 102.76 89.5388 102.716Z" fill="#263238"/>
<path d="M89.5387 169.139V158.811C89.5387 158.811 89.4019 156.276 91.5734 156.8C93.7448 157.324 93.3345 161.355 93.3345 161.355C93.3345 161.355 93.7448 177.058 92.7959 176.923C91.847 176.788 91.4793 175.579 91.4793 175.579V169.545L89.5387 169.139Z" fill="#B700DB"/>
<path d="M80.4667 169.781C84.1944 170.063 87.9384 170.063 91.6661 169.781C87.9384 169.499 84.1944 169.499 80.4667 169.781Z" fill="#263238"/>
<path d="M59.8219 120.072C60.2021 120.239 60.5934 120.38 60.9931 120.494C62.0559 120.875 63.095 121.318 64.105 121.821C67.4174 123.512 70.2904 125.935 72.5001 128.903C73.1281 129.738 73.6802 130.626 74.1501 131.557C74.5607 132.44 74.8926 133.356 75.1418 134.296C75.5732 135.896 75.8593 137.53 75.9967 139.181C76.1164 140.584 76.1421 141.716 76.1506 142.561C76.1196 142.972 76.1196 143.384 76.1506 143.795C76.2424 143.39 76.2882 142.976 76.2874 142.561C76.3463 141.435 76.3463 140.307 76.2874 139.181C76.2031 137.506 75.9511 135.845 75.5351 134.22C75.2914 133.254 74.9595 132.312 74.5434 131.405C74.0548 130.448 73.4827 129.534 72.8336 128.675C70.5944 125.644 67.6387 123.201 64.2247 121.559C63.1963 121.07 62.1299 120.663 61.0359 120.342C60.6415 120.212 60.2348 120.121 59.8219 120.072Z" fill="#263238"/>
<path d="M115.416 237.141C115.405 236.975 115.405 236.808 115.416 236.642C115.416 236.287 115.493 235.797 115.553 235.205C115.681 233.921 115.869 232.087 116.109 229.788C116.63 225.114 117.357 218.53 118.212 210.746L118.391 210.975L99.1557 209.36L66.6693 206.529C63.3886 206.221 60.0883 206.864 57.1713 208.38C56.3839 208.795 55.6268 209.264 54.9058 209.783L54.3501 210.206C54.2907 210.257 54.2246 210.299 54.1534 210.332C55.0289 209.498 56.019 208.789 57.0943 208.228C60.0212 206.629 63.3636 205.929 66.6949 206.216L99.2241 208.921L118.46 210.569H118.665V210.772C117.741 218.539 116.955 225.139 116.408 229.796L115.724 235.197C115.647 235.797 115.578 236.27 115.536 236.625C115.511 236.8 115.471 236.972 115.416 237.141Z" fill="#263238"/>
<path d="M101.507 237.844C101.418 237.481 101.367 237.11 101.353 236.737C101.284 236.018 101.216 234.97 101.165 233.677C100.917 226.938 101.52 220.196 102.96 213.605C103.242 212.345 103.49 211.331 103.695 210.63C103.772 210.263 103.889 209.906 104.046 209.565C104.022 209.939 103.962 210.309 103.866 210.672C103.704 211.466 103.507 212.472 103.268 213.664C102.789 216.199 102.225 219.715 101.874 223.628C101.524 227.541 101.455 231.099 101.473 233.669C101.473 234.894 101.515 235.917 101.524 236.72C101.559 237.094 101.553 237.471 101.507 237.844Z" fill="#263238"/>
<path d="M108.842 229.577C108.842 229.577 109.055 229.468 109.474 229.468C110.076 229.489 110.656 229.696 111.133 230.059C111.503 230.324 111.801 230.676 112 231.083C112.198 231.491 112.291 231.94 112.27 232.392C112.239 232.95 112.051 233.488 111.726 233.945C111.401 234.403 110.952 234.76 110.432 234.978C109.898 235.161 109.323 235.189 108.773 235.06C108.224 234.932 107.723 234.651 107.328 234.251C107.003 233.923 106.774 233.514 106.666 233.068C106.557 232.621 106.574 232.154 106.713 231.716C106.864 231.137 107.211 230.627 107.696 230.27C107.862 230.126 108.067 230.032 108.286 230C108.286 230.042 108.098 230.135 107.807 230.397C107.409 230.773 107.135 231.259 107.021 231.792C106.923 232.17 106.927 232.567 107.032 232.944C107.137 233.32 107.339 233.663 107.619 233.939C107.96 234.276 108.391 234.511 108.861 234.617C109.331 234.723 109.822 234.696 110.278 234.539C110.719 234.349 111.099 234.045 111.378 233.657C111.656 233.27 111.823 232.815 111.859 232.341C111.887 231.95 111.818 231.558 111.659 231.199C111.499 230.84 111.254 230.524 110.945 230.279C110.52 229.927 110.005 229.699 109.457 229.62C109.251 229.616 109.046 229.602 108.842 229.577Z" fill="#263238"/>
<path d="M97.5655 97.9358L97.3004 98.0964L96.4455 98.5612L93.2909 100.328L81.0999 106.996L60.5822 115.498C56.3324 117.185 52.7197 120.139 50.2464 123.95C48.8863 125.984 47.7892 128.179 46.9806 130.483C46.0911 132.895 45.4802 135.398 45.1597 137.946C41.3639 154.003 37.0551 172.436 32.8746 192.036C32.0197 196.261 31.1648 200.42 30.3099 204.535C30.0962 205.567 29.9252 206.598 29.7371 207.62C29.5491 208.643 29.3524 209.657 29.2242 210.68C28.9316 212.694 28.8258 214.731 28.9079 216.765C29.0514 220.729 29.9748 224.627 31.6265 228.242C32.4265 229.988 33.4555 231.622 34.6871 233.102C35.9026 234.53 37.3466 235.752 38.9616 236.719C42.1076 238.581 45.7478 239.465 49.4086 239.254L59.8042 239.043C66.5067 238.883 72.7561 238.688 78.4583 238.494L105.473 237.522L112.817 237.243L114.732 237.184H115.382L114.732 237.235L112.826 237.344L105.482 237.699C99.1043 237.995 89.8799 238.401 78.4754 238.815C72.7732 239.026 66.5067 239.238 59.8128 239.415L49.4086 239.652C45.6739 239.869 41.9596 238.971 38.7479 237.074C37.0928 236.083 35.6091 234.836 34.3536 233.381C33.1029 231.869 32.0541 230.204 31.2332 228.428C29.5536 224.764 28.6128 220.811 28.4633 216.79C28.3769 214.731 28.4828 212.669 28.7797 210.629C28.9079 209.589 29.1131 208.575 29.2926 207.553C29.4721 206.53 29.6517 205.49 29.8654 204.468C30.6519 200.343 31.5068 196.168 32.4301 191.959C36.6106 172.369 40.9364 153.927 44.7664 137.869C45.0838 135.306 45.6918 132.785 46.5788 130.356C47.3988 128.025 48.5164 125.807 49.9044 123.755C52.4233 119.894 56.0997 116.906 60.4197 115.211L80.9888 106.759L93.2311 100.192L96.4626 98.502L97.3175 98.071L97.5655 97.9358Z" fill="#263238"/>
<path d="M169.301 165.845H149.758V171.871H169.301V165.845Z" fill="#263238"/>
<path d="M241.574 176.921L176.559 245.48L113.142 245.869L111.637 243.021L174.148 176.067L241.574 176.921Z" fill="#263238"/>
<path d="M180.125 176.071C180.125 176.071 184.348 176.071 185.605 177.525C187.067 179.266 189.879 183.187 183.741 193.168C181.296 197.166 169.302 210.917 164.369 225.005C159.761 238.156 161.864 242.5 161.864 242.5L207.619 241.055L208.473 239.424C208.473 239.424 228.367 186.179 223.101 176.037C220.673 171.414 179.8 174.364 180.125 176.071Z" fill="#E0E0E0"/>
<path d="M215.217 239.701L166 240.107C165.411 227.784 169.736 218.834 176.174 208.261C178.636 204.213 182.004 200.748 184.458 196.691C187.041 192.418 188.551 187.596 188.861 182.628C188.989 180.65 188.861 178.512 187.638 176.948C186.416 175.385 182.021 175.3 180.124 176.103C182.25 174.583 184.757 173.668 187.373 173.458C191.348 173.128 223.886 173.348 229.939 173.399C231.401 173.462 232.85 173.694 234.256 174.092C238.668 176.348 239.574 182.29 238.95 186.566C238.36 190.615 235.821 194.435 232.632 198.711C231.705 199.936 230.849 201.211 230.067 202.531C226.707 208.287 217.432 224.429 215.765 229.999C214.956 233.169 214.771 236.462 215.217 239.701Z" fill="#FAFAFA"/>
<path d="M215.218 239.601L203.369 239.694L180.731 239.88L171.224 239.964H168.044C167.453 240.028 166.857 240.028 166.266 239.964C166.223 239.964 166.026 239.964 166.001 239.964C165.975 239.964 166.069 239.06 166.061 238.959C166.061 238.536 166.061 238.113 166.061 237.682C166.061 236.854 166.086 236.026 166.138 235.198C166.339 232.031 166.895 228.896 167.796 225.85C169.626 219.714 172.763 214.018 176.08 208.592C177.901 205.6 180.158 202.921 182.244 200.14C184.257 197.508 185.886 194.609 187.083 191.528C188.256 188.465 188.917 185.234 189.041 181.961C189.1 179.865 188.793 176.992 186.561 176.045C185.54 175.653 184.451 175.463 183.355 175.487C182.629 175.487 180.945 175.394 180.321 175.893C180.141 176.028 180.235 176.079 180.363 176.045C180.469 175.99 180.566 175.922 180.654 175.842C180.987 175.622 181.338 175.411 181.688 175.225C182.885 174.584 184.165 174.109 185.493 173.814C188.143 173.231 191.015 173.4 193.717 173.374C202.146 173.307 210.584 173.374 219.022 173.374L228.759 173.433C230.292 173.425 231.821 173.569 233.325 173.864C235.889 174.397 237.599 176.958 238.351 179.282C239.15 181.818 239.297 184.51 238.779 187.117C238.129 190.421 236.291 193.379 234.385 196.117C232.675 198.585 230.888 200.969 229.366 203.572C228.323 205.389 227.28 207.198 226.246 209.023C223.775 213.384 221.347 217.779 219.09 222.267C217.15 226.112 215.278 229.924 214.978 234.285C214.842 236.095 214.902 237.914 215.158 239.711C215.158 239.846 215.389 239.787 215.363 239.652C214.718 235.253 215.356 230.765 217.201 226.712C219.133 222.36 221.424 218.151 223.724 213.984C225.821 210.181 227.964 206.406 230.153 202.659C233.342 197.208 238.471 192.45 239.181 185.891C239.617 181.792 238.659 175.749 234.308 173.915C232.794 173.4 231.197 173.168 229.597 173.231H226.041C217.757 173.18 209.464 173.138 201.18 173.146C197.607 173.146 194.033 173.146 190.46 173.214C187.22 173.273 184.116 173.586 181.227 175.251C180.83 175.472 180.451 175.72 180.09 175.994C180.013 176.053 180.09 176.206 180.201 176.172C182.093 175.523 184.146 175.493 186.057 176.087C188.622 176.932 188.921 179.975 188.818 182.299C188.524 187.87 186.723 193.261 183.603 197.909C182.082 200.191 180.321 202.313 178.671 204.51C177.119 206.61 175.692 208.797 174.396 211.06C171.911 215.151 169.838 219.474 168.207 223.965C166.43 229.158 165.65 234.632 165.907 240.108C165.907 240.137 165.919 240.165 165.939 240.186C165.96 240.206 165.988 240.218 166.018 240.218L182.646 240.083L209.148 239.863L215.226 239.812C215.243 239.816 215.26 239.816 215.277 239.812C215.294 239.809 215.309 239.801 215.323 239.79C215.336 239.779 215.347 239.766 215.354 239.75C215.361 239.735 215.364 239.718 215.363 239.701C215.363 239.684 215.358 239.667 215.35 239.652C215.341 239.638 215.33 239.625 215.316 239.615C215.302 239.605 215.285 239.599 215.268 239.597C215.251 239.594 215.234 239.596 215.218 239.601Z" fill="#263238"/>
<path d="M212.309 229.544C212.309 229.67 203.632 229.763 192.92 229.763C182.208 229.763 173.531 229.67 173.531 229.544C173.531 229.417 182.217 229.324 192.92 229.324C203.623 229.324 212.309 229.425 212.309 229.544Z" fill="#263238"/>
<path d="M213.397 223.137C213.397 223.255 204.72 223.357 194.008 223.357C183.296 223.357 174.618 223.255 174.618 223.137C174.618 223.018 183.304 222.917 194.008 222.917C204.711 222.917 213.397 223.01 213.397 223.137Z" fill="#263238"/>
<path d="M218.613 216.257C218.613 216.376 209.927 216.477 199.224 216.477C188.52 216.477 179.834 216.376 179.834 216.257C179.834 216.139 188.512 216.038 199.224 216.038C209.936 216.038 218.613 216.131 218.613 216.257Z" fill="#263238"/>
<path d="M221.819 209.969C221.819 210.087 213.142 210.189 202.43 210.189C191.718 210.189 183.04 210.087 183.04 209.969C183.04 209.851 191.726 209.749 202.43 209.749C213.133 209.749 221.819 209.851 221.819 209.969Z" fill="#263238"/>
<path d="M223.954 204.221C223.954 204.339 215.277 204.44 204.574 204.44C193.87 204.44 185.184 204.339 185.184 204.221C185.184 204.102 193.862 204.001 204.574 204.001C215.286 204.001 223.954 204.094 223.954 204.221Z" fill="#263238"/>
<path d="M229.222 196.667C229.222 196.794 220.544 196.887 209.832 196.887C199.12 196.887 190.443 196.794 190.443 196.667C190.443 196.54 199.129 196.447 209.832 196.447C220.536 196.447 229.222 196.549 229.222 196.667Z" fill="#263238"/>
<path d="M234.181 189.442C234.181 189.56 225.504 189.662 214.792 189.662C204.08 189.662 195.403 189.56 195.403 189.442C195.403 189.324 204.088 189.222 214.792 189.222C225.495 189.222 234.181 189.324 234.181 189.442Z" fill="#263238"/>
<path d="M233.82 182.569C233.82 182.687 225.143 182.789 214.44 182.789C203.736 182.789 195.025 182.687 195.025 182.569C195.025 182.451 203.702 182.349 214.414 182.349C225.126 182.349 233.82 182.442 233.82 182.569Z" fill="#263238"/>
<path d="M174.149 176.067C174.245 176.118 174.334 176.181 174.414 176.253L175.184 176.853L178.125 179.22L178.202 179.287L178.133 179.364C172.841 185.085 161.368 197.315 148.058 211.42C138.876 221.368 130.028 229.895 123.624 236.04C120.418 239.116 117.811 241.576 115.999 243.274L113.896 245.218L113.34 245.708L113.143 245.869C113.143 245.869 113.194 245.801 113.306 245.683L113.836 245.151L115.879 243.148L123.411 235.82C129.754 229.608 138.551 221.072 147.733 211.116C161.044 197.01 172.585 184.849 177.988 179.228V179.372L175.098 176.929L174.363 176.296C174.284 176.227 174.212 176.151 174.149 176.067Z" fill="#455A64"/>
<path d="M118.375 213.797H127.659C127.659 213.797 133.934 208.388 135.353 207.974C138.337 207.087 146.039 206.157 146.039 206.157L140.782 211.803C139.559 213.104 137.319 214.279 138.644 214.279H148.305C148.305 214.279 158.179 209.597 159.65 210.451C160.881 211.169 161.308 212.471 160.051 214.279C158.795 216.088 150.134 220.364 149.134 220.694L146.304 221.539L148.963 222.384L161.556 218.032C162.368 217.888 163.505 217.753 163.873 218.226C164.03 218.388 164.153 218.579 164.235 218.788C164.316 218.997 164.355 219.22 164.349 219.445C164.343 219.669 164.291 219.889 164.198 220.094C164.104 220.298 163.97 220.482 163.804 220.635C162.01 222.234 160.107 223.71 158.111 225.055C158.111 225.055 160.12 227.979 158.453 229.458C156.786 230.937 151.964 235.374 151.964 235.374C151.964 235.374 151.459 237.842 149.963 238.991C148.467 240.141 132.01 240.141 130.822 240.141C129.634 240.141 123 236.363 123 236.363L115.776 235.831L118.375 213.797Z" fill="#B78876"/>
<path d="M147.084 229.72C147.665 229.909 148.277 229.992 148.888 229.966C149.559 229.97 150.226 229.853 150.854 229.619C151.609 229.323 152.328 228.946 153 228.495C154.428 227.574 155.702 226.729 156.616 226.095C157.134 225.788 157.616 225.425 158.053 225.013C157.497 225.239 156.967 225.522 156.471 225.858C155.513 226.424 154.214 227.244 152.786 228.157C152.14 228.597 151.449 228.971 150.726 229.272C150.137 229.508 149.513 229.645 148.879 229.678C147.785 229.737 147.084 229.661 147.084 229.72Z" fill="#AA6550"/>
<path d="M146.296 235.816C146.617 236.189 147.063 236.436 147.553 236.509C148.723 236.768 149.949 236.568 150.973 235.951C151.974 235.389 152.901 234.708 153.734 233.923C154.367 233.323 154.709 232.9 154.666 232.866C153.422 233.848 152.126 234.765 150.785 235.613C149.841 236.183 148.724 236.408 147.63 236.247C147.173 236.146 146.726 236.002 146.296 235.816Z" fill="#AA6550"/>
<path d="M141.663 222.334C142.537 222.439 143.423 222.37 144.27 222.131C145.143 222.017 145.983 221.73 146.741 221.286C145.873 221.363 145.015 221.518 144.176 221.751C143.321 221.863 142.479 222.058 141.663 222.334Z" fill="#AA6550"/>
<path d="M78.6719 39.2972C77.4582 37.1529 75.8256 35.2684 73.8688 33.7532C71.912 32.2381 69.6701 31.1226 67.2735 30.4715C64.8768 29.8203 62.3731 29.6466 59.9079 29.9604C57.4427 30.2742 55.0652 31.0693 52.9135 32.2993C49.2289 34.4122 46.1598 38.2154 46.4077 42.4412C46.6385 46.4134 49.6307 49.6166 52.4519 52.4479C47.9551 54.2987 45.7067 59.9275 47.1771 64.5082C48.6476 69.089 53.2811 72.3259 58.1199 72.7654C62.9587 73.2049 67.8402 71.1258 71.3368 67.779C74.7582 64.3229 77.1485 60.0004 78.2444 55.2876" fill="#263238"/>
<path d="M63.3185 49.54C62.5373 49.8772 61.7056 50.0856 60.8563 50.1569C58.5208 50.3769 56.1725 49.8938 54.1197 48.7709C52.6937 48.0132 51.4397 46.9749 50.435 45.7199C49.2849 44.2642 48.5129 42.5522 48.1866 40.7334C47.8147 38.6545 47.9403 36.5183 48.5534 34.4959C49.1665 32.4735 50.2501 30.6212 51.7174 29.0872C53.2265 27.6019 55.0323 26.4439 57.0195 25.6872C59.0066 24.9305 61.1316 24.5917 63.2586 24.6924C66.7671 24.7617 70.1222 26.1276 72.6626 28.5209C74.3433 30.1631 75.3329 32.3734 75.4325 34.7075C75.4531 35.3323 75.3928 35.9572 75.2529 36.5668C75.2102 36.7781 75.1418 36.9302 75.1161 37.0317C75.0905 37.1331 75.0563 37.1838 75.0478 37.1838C75.2186 36.3697 75.2903 35.5384 75.2615 34.7075C75.0939 32.4436 74.0897 30.3198 72.4403 28.7407C69.9408 26.4455 66.6696 25.1477 63.2586 25.0981C61.192 25.0113 59.1296 25.3479 57.2008 26.0867C55.2721 26.8256 53.5187 27.9507 52.0508 29.3914C50.6358 30.88 49.5902 32.6735 48.9968 34.6302C48.4033 36.5868 48.2781 38.6531 48.6312 40.6658C48.9313 42.4222 49.6622 44.0791 50.7599 45.4917C51.9479 46.9808 53.4805 48.1659 55.2287 48.9469C56.9769 49.7279 58.8894 50.082 60.805 49.9795C61.6521 49.8906 62.4919 49.7438 63.3185 49.54Z" fill="#263238"/>
<path d="M68.8417 53.2258C68.6632 53.3758 68.4647 53.5009 68.2518 53.5976C67.7063 53.904 67.134 54.1614 66.542 54.3667C65.6542 54.6785 64.7381 54.9049 63.8063 55.0428C62.6593 55.1992 61.4991 55.2388 60.3439 55.1611C59.1842 55.0729 58.0376 54.8604 56.9243 54.5273C56.0229 54.2514 55.1499 53.892 54.3168 53.454C53.7565 53.1601 53.2218 52.8209 52.7182 52.4398C52.3677 52.1609 52.1881 52.0003 52.2052 51.975C52.2223 51.9496 53.0601 52.499 54.4622 53.1751C55.2888 53.5653 56.1466 53.8876 57.0269 54.1385C59.1986 54.7483 61.4726 54.9179 63.7122 54.6372C64.624 54.521 65.5246 54.3317 66.4052 54.0709C67.9269 53.6145 68.7989 53.1497 68.8417 53.2258Z" fill="#455A64"/>
<path d="M46.391 43.1845C46.4527 42.8313 46.5679 42.4894 46.733 42.1703C47.1284 41.2587 47.7521 40.4618 48.5454 39.8546C49.7873 39.0419 51.2225 38.5641 52.7088 38.4685C54.4991 38.3215 56.3011 38.4068 58.0691 38.7221C61.2798 39.2332 64.3773 40.2883 67.2252 41.8407C68.0835 42.3106 68.9115 42.8328 69.7044 43.4042C70.0172 43.5929 70.3045 43.82 70.5593 44.0803C70.2285 43.9364 69.9158 43.7549 69.6275 43.5394C69.0376 43.1844 68.1827 42.6943 67.0627 42.1196C64.2122 40.6667 61.1485 39.6657 57.9836 39.1531C56.2549 38.8476 54.4948 38.754 52.743 38.8742C51.3198 38.9442 49.9377 39.3687 48.7249 40.1081C47.9458 40.6628 47.3149 41.3967 46.8868 42.2463C46.7376 42.5671 46.5721 42.8802 46.391 43.1845Z" fill="#455A64"/>
<path d="M72.4994 60.1381C72.4994 60.1381 72.4994 60.2395 72.3797 60.4255C72.26 60.6114 72.1232 60.8565 71.9181 61.1861C71.3008 62.0949 70.5778 62.9289 69.7637 63.6709C68.549 64.7715 67.1561 65.6629 65.643 66.3078C63.7773 67.0973 61.7649 67.4917 59.7356 67.4657C57.7082 67.4594 55.7056 67.0243 53.8624 66.1895C52.3589 65.4952 51.0346 64.4721 49.9897 63.1976C49.2877 62.3347 48.7989 61.3218 48.5619 60.2395C48.4969 59.9478 48.4597 59.6507 48.4508 59.3521C48.4508 59.1493 48.4508 59.0479 48.4508 59.0479C48.4508 59.0479 48.5021 59.4704 48.7073 60.1973C49.0061 61.2275 49.5217 62.1837 50.2205 63.0032C51.2629 64.206 52.5583 65.1693 54.0163 65.8261C55.8146 66.6147 57.7597 67.0235 59.7271 67.0262C61.6939 67.0475 63.6449 66.6767 65.4635 65.9359C66.9501 65.3146 68.3245 64.4583 69.5329 63.4004C70.6371 62.4212 71.6316 61.3275 72.4994 60.1381Z" fill="#455A64"/>
<path d="M74.1324 64.535C73.8554 64.938 73.5406 65.3144 73.192 65.659C72.5594 66.3521 71.619 67.3493 70.3709 68.4734C69.7468 69.0397 69.0372 69.6397 68.2507 70.2482C65.5139 72.5278 61.9781 73.6484 58.4108 73.3669C55.9253 73.2967 53.521 72.4769 51.5202 71.0173C49.9507 69.7641 48.7102 68.155 47.904 66.3267C47.3504 65.1078 47.0287 63.7985 46.955 62.4643C46.9305 62.1013 46.9305 61.7371 46.955 61.3741C46.9609 61.2483 46.981 61.1236 47.0149 61.0022C47.0336 61.1283 47.0336 61.2564 47.0149 61.3825C47.0103 61.7384 47.0303 62.0942 47.0747 62.4474C47.2045 63.7487 47.5602 65.0181 48.1263 66.1999C48.9511 67.9555 50.1809 69.4955 51.7168 70.6962C53.6607 72.0823 55.9807 72.8597 58.3766 72.9274C60.7693 73.0675 63.1599 72.6204 65.3355 71.6258C66.2708 71.1555 67.1534 70.5889 67.9686 69.9355C68.7551 69.3439 69.4647 68.7608 70.0973 68.2452C71.3626 67.155 72.3371 66.2084 73.0125 65.5491C73.3653 65.1896 73.7393 64.8509 74.1324 64.535Z" fill="#455A64"/>
<path d="M81.3221 38.7882L82.5703 39.7601C82.0659 37.6641 79.6893 36.3795 77.5178 36.5654C76.4367 36.7345 75.4077 37.1412 74.5067 37.7555C73.6056 38.3698 72.8555 39.1761 72.3114 40.1151C71.2376 42.0035 70.5274 44.0725 70.2169 46.2171C69.5501 49.7667 69.2167 53.553 70.6443 56.866C72.072 60.179 75.7738 62.7821 79.296 61.9369C82.8182 61.0918 84.7931 57.2801 85.3231 53.7305C85.6969 51.1019 85.5355 48.4261 84.8484 45.8601C84.1613 43.294 82.9624 40.8897 81.3221 38.7882Z" fill="#B700DB"/>
<path d="M76.4244 54.8687C75.3967 55.4767 74.1946 55.7322 73.0049 55.5955C72.1734 55.5577 71.3548 55.3775 70.5856 55.0631C69.9615 54.818 69.7307 54.3532 69.8504 54.3447C70.1098 54.5333 70.3985 54.6789 70.7053 54.7757C71.4665 54.9877 72.2493 55.1153 73.0391 55.1561C74.1729 55.1383 75.3041 55.0423 76.4244 54.8687Z" fill="#263238"/>
<path d="M78.1594 48.5961C76.7995 48.7797 75.4229 48.8109 74.0559 48.6891C72.685 48.7234 71.3145 48.6071 69.9695 48.3425C71.3302 48.1691 72.7057 48.1379 74.073 48.2496C75.4436 48.2253 76.813 48.3415 78.1594 48.5961Z" fill="#263238"/>
<path d="M76.792 41.895C76.792 42.0387 75.5267 41.895 74.0392 41.726C73.4102 41.6735 72.7768 41.7105 72.1584 41.8359C71.6882 41.9373 71.4061 42.0556 71.3719 41.9964C71.3377 41.9373 71.5771 41.726 72.0644 41.5316C72.7062 41.3113 73.388 41.2278 74.0648 41.2866C75.0049 41.3153 75.9306 41.5219 76.792 41.895Z" fill="#263238"/>
<path d="M85.477 24.9391C85.3744 21.4063 88.6915 18.668 92.0256 17.3326C95.3597 15.9973 99.0615 15.5494 102.037 13.5717C104.67 11.8222 106.439 9.09236 108.662 6.85269C111.411 4.09816 114.852 2.11642 118.632 1.11089C122.411 0.105371 126.394 0.112288 130.17 1.13093C133.946 2.14957 137.38 4.14324 140.119 6.9073C142.858 9.67136 144.804 13.1062 145.757 16.8594C147.039 21.9303 146.167 27.8464 142.149 31.227C137.481 35.1148 130.556 34.2527 124.581 33.0441C118.605 31.8355 111.834 30.6354 106.841 34.109C103.832 36.205 102.105 39.611 100.258 42.7634C98.4118 45.9159 96.1121 49.1275 92.6326 50.3107C89.1531 51.4939 84.4255 49.4655 84.2887 45.8144" fill="#263238"/>
<path d="M85.7181 26.8831C86.1114 29.8581 83.9399 32.5119 81.777 34.6079C79.614 36.7039 77.1776 38.9266 76.7929 41.8931C76.3483 45.3667 78.9045 48.7812 78.1607 52.1956C77.6905 54.3676 75.9892 56.0411 74.9548 58.0103C73.5713 60.8486 73.3418 64.1035 74.3136 67.1041C75.1685 70.096 76.6219 76.7727 78.7249 79.0969C84.5383 85.5201 93.7884 91.0643 102.286 92.9913C110.784 94.9183 119.607 94.9352 128.31 94.4027C135.431 93.9717 143.621 94.2928 149.563 84.6073C152.632 79.5871 154.162 72.9188 155.795 67.2816C157.197 62.422 158.419 57.2243 156.949 52.3815C156.094 49.5587 154.384 47.057 153.529 44.2342C152.478 40.7099 152.863 36.9321 152.435 33.2472C151.976 29.2751 150.565 25.4686 148.319 22.1442C146.073 18.8197 143.056 16.0733 139.521 14.1333C135.985 12.1933 132.031 11.1157 127.989 10.9902C123.947 10.8646 119.933 11.6947 116.281 13.4114" fill="#263238"/>
<path d="M97.8301 107.518C97.8301 107.518 97.8301 107.729 97.873 107.83L97.8301 107.518Z" fill="#B78876"/>
<path d="M149.049 39.0613C148.382 28.9617 141.577 16.5717 131.395 17.6619L99.6008 25.6825C98.1094 25.841 96.7326 26.5474 95.743 27.6618C94.7535 28.7763 94.2234 30.2175 94.2577 31.7L97.7457 105.829C97.7947 107.088 98.0848 108.327 98.6006 109.48C100.96 114.618 108.808 127.693 125.838 122.402C130.01 121.109 131.916 116.596 132.737 111.965C132.737 111.415 132.968 110.925 132.976 110.401C133.387 106.944 133.43 103.454 133.105 99.9887C133.164 93.8697 133.156 91.3596 133.156 91.4188C133.156 91.478 146.21 89.2467 148.886 72.3943C150.245 64.0188 149.784 50.285 149.049 39.0613Z" fill="#B78876"/>
<path d="M143.927 50.0499C143.934 50.6129 143.718 51.1563 143.325 51.5638C142.932 51.9713 142.393 52.2105 141.824 52.2304C141.546 52.2534 141.266 52.221 141.001 52.1351C140.736 52.0492 140.491 51.9115 140.28 51.7302C140.07 51.549 139.898 51.3278 139.776 51.0798C139.653 50.8318 139.582 50.5621 139.567 50.2865C139.56 49.7249 139.775 49.1828 140.166 48.7755C140.558 48.3683 141.094 48.1281 141.662 48.1061C141.94 48.083 142.221 48.1154 142.487 48.2012C142.752 48.287 142.998 48.4246 143.209 48.6057C143.42 48.7869 143.593 49.008 143.716 49.256C143.839 49.5041 143.911 49.774 143.927 50.0499Z" fill="#263238"/>
<path d="M146.048 46.2107C145.774 46.4896 144.116 45.2811 141.773 45.2895C139.431 45.298 137.704 46.4727 137.447 46.1854C137.319 46.0586 137.601 45.5515 138.345 45.0106C139.361 44.3127 140.57 43.9409 141.808 43.9457C143.035 43.9359 144.234 44.315 145.227 45.0275C145.937 45.5684 146.185 46.084 146.048 46.2107Z" fill="#263238"/>
<path d="M120.648 50.0499C120.657 50.6121 120.443 51.1555 120.051 51.5633C119.66 51.971 119.122 52.2105 118.553 52.2304C118.275 52.2534 117.995 52.221 117.73 52.1351C117.465 52.0492 117.219 51.9115 117.009 51.7303C116.799 51.549 116.627 51.3278 116.505 51.0798C116.382 50.8319 116.311 50.5621 116.296 50.2865C116.287 49.7243 116.501 49.1809 116.893 48.7732C117.285 48.3655 117.822 48.1259 118.391 48.1061C118.669 48.083 118.949 48.1154 119.214 48.2014C119.48 48.2873 119.725 48.4249 119.935 48.6062C120.146 48.7875 120.317 49.0086 120.439 49.2566C120.562 49.5046 120.633 49.7744 120.648 50.0499Z" fill="#263238"/>
<path d="M122.931 46.6694C122.657 46.9483 120.999 45.7397 118.656 45.7566C116.314 45.7735 114.587 46.9314 114.33 46.6525C114.202 46.5257 114.476 46.0102 115.185 45.4693C116.204 44.7702 117.416 44.3984 118.656 44.4044C119.883 44.3981 121.081 44.7769 122.076 45.4862C122.82 46.0609 123.068 46.568 122.931 46.6694Z" fill="#263238"/>
<path d="M131.505 63.916C131.505 63.7808 132.959 63.5272 135.327 63.223C135.925 63.1638 136.49 63.0455 136.592 62.6398C136.64 62.0272 136.5 61.4145 136.19 60.8819C135.618 59.4451 135.028 57.9408 134.404 56.3603C131.924 49.9287 130.129 44.6464 130.385 44.5281C130.642 44.4098 132.873 49.599 135.353 55.9969C135.951 57.5858 136.521 59.1014 137.062 60.5438C137.445 61.2564 137.557 62.0808 137.379 62.868C137.291 63.0738 137.157 63.2569 136.986 63.4034C136.816 63.5499 136.614 63.6559 136.396 63.7132C136.064 63.8049 135.722 63.8532 135.378 63.8569C132.993 64.0343 131.514 64.0428 131.505 63.916Z" fill="#263238"/>
<path d="M133.191 91.4595C125.175 91.5791 117.283 89.499 110.391 85.4504C110.391 85.4504 116.153 97.1052 133.208 95.4909L133.191 91.4595Z" fill="#AA6550"/>
<path d="M130.521 69.4878C130.07 68.9345 129.484 68.5027 128.819 68.2324C128.154 67.962 127.431 67.8619 126.717 67.9412C126.198 67.9895 125.695 68.14 125.237 68.3839C124.779 68.6278 124.375 68.96 124.049 69.361C123.737 69.7499 123.552 70.2238 123.52 70.7193C123.488 71.2148 123.61 71.7081 123.87 72.1331C124.249 72.5487 124.745 72.8436 125.295 72.9805C125.844 73.1174 126.422 73.0902 126.956 72.9022C128.064 72.5073 129.084 71.9014 129.957 71.119C130.223 70.9336 130.45 70.6981 130.624 70.4259C130.708 70.3009 130.753 70.1538 130.753 70.0034C130.753 69.8529 130.708 69.7059 130.624 69.5808" fill="#AA6550"/>
<path d="M124.589 65.5426C124.973 65.5426 124.982 68.0781 127.153 69.8275C129.325 71.577 132.06 71.3319 132.078 71.6869C132.078 71.839 131.471 72.1771 130.325 72.2109C128.829 72.2361 127.372 71.736 126.213 70.7995C125.099 69.9052 124.381 68.6166 124.212 67.2075C124.127 66.1511 124.409 65.5257 124.589 65.5426Z" fill="#263238"/>
<path d="M123.982 42.6187C123.751 43.2526 121.417 42.9568 118.647 43.2949C115.877 43.6329 113.654 44.3767 113.287 43.8104C113.124 43.54 113.509 42.9652 114.406 42.3314C115.605 41.5775 116.962 41.1034 118.374 40.9453C119.785 40.7871 121.215 40.949 122.554 41.4186C123.571 41.8243 124.067 42.3145 123.982 42.6187Z" fill="#263238"/>
<path d="M145.167 39.4856C144.756 40.0096 143.132 39.4856 141.183 39.4856C139.234 39.4856 137.592 39.849 137.208 39.2997C137.037 39.0292 137.302 38.5052 138.02 37.9981C138.987 37.3974 140.113 37.0943 141.254 37.1275C142.396 37.1606 143.502 37.5283 144.432 38.184C145.124 38.6827 145.346 39.2236 145.167 39.4856Z" fill="#263238"/>
<path d="M87.7078 81.0926C90.0585 81.5546 92.4866 81.4578 94.792 80.8099C97.0974 80.1621 99.2141 78.9818 100.967 77.3665C102.721 75.7511 104.061 73.7469 104.877 71.5191C105.693 69.2912 105.962 66.9035 105.661 64.5529C105.131 60.4201 102.874 56.2027 104.327 52.2896C106.242 47.1173 113.586 45.5284 115.535 40.356C116.672 37.3473 115.655 33.8399 116.937 30.8987C118.142 28.1266 121.083 26.5377 123.956 25.5066C126.828 24.4755 129.897 23.8163 132.3 21.9316C134.702 20.0469 136.207 16.5902 134.659 13.9956C121.931 15.5035 109.429 18.5053 97.4195 22.9374C94.6411 23.9685 91.7173 25.2024 90.0758 27.6449C88.366 30.2311 88.4173 33.561 88.5627 36.6712C89.2751 51.7995 89.9875 66.9278 90.6999 82.0561" fill="#263238"/>
<path d="M88.7784 86.8902C88.6765 86.8442 88.5816 86.7845 88.4963 86.7127L87.7439 86.1465C87.0857 85.6309 86.111 84.8787 84.9227 83.8307C83.4521 82.5743 82.1092 81.1788 80.9132 79.6641C79.2815 77.6504 78.1853 75.265 77.7244 72.7254C77.3964 71.1806 77.4234 69.5827 77.8037 68.0497C78.184 66.5166 78.9077 65.0876 79.9215 63.8681C81.1556 62.6407 82.4848 61.5104 83.8969 60.4875C85.3129 59.4188 86.3874 57.9693 86.9916 56.3124C88.2483 52.8727 87.6926 48.9004 88.1799 44.8352C88.6599 40.594 90.3334 36.5709 93.0102 33.2228C94.3902 31.5309 96.1107 30.1408 98.0626 29.1407C99.9847 28.2813 101.99 27.6159 104.047 27.1545C105.953 26.686 107.737 25.8217 109.279 24.6191C110.734 23.419 112.015 22.0253 113.083 20.4778C115.221 17.4775 116.802 14.2744 118.845 11.6037C119.808 10.2913 120.937 9.10681 122.205 8.07936C123.391 7.13626 124.737 6.40936 126.18 5.93266C127.415 5.46984 128.742 5.29613 130.056 5.42517C131.37 5.55421 132.636 5.98248 133.755 6.6764C134.543 7.2824 135.191 8.04873 135.654 8.92358C136.117 9.79842 136.385 10.7614 136.439 11.7473C136.541 12.9905 136.176 14.2272 135.413 15.2209C135.216 15.4698 134.982 15.6889 134.721 15.8717C134.55 16.0069 134.456 16.0661 134.447 16.0492C134.439 16.0323 134.516 15.9647 134.67 15.821C134.905 15.6155 135.115 15.3828 135.294 15.128C135.981 14.1394 136.284 12.9392 136.149 11.7473C136.063 10.8195 135.781 9.91985 135.319 9.10723C134.858 8.29462 134.229 7.58727 133.473 7.03136C132.407 6.39422 131.206 6.00999 129.964 5.90881C128.723 5.80763 127.474 5.99226 126.317 6.44821C124.941 6.91965 123.659 7.6262 122.53 8.53574C121.316 9.55949 120.236 10.7292 119.316 12.0178C117.341 14.6462 115.785 17.8409 113.622 20.9257C112.523 22.5282 111.205 23.9729 109.706 25.2191C108.096 26.4901 106.231 27.4089 104.235 27.9152C102.231 28.3731 100.278 29.0271 98.4046 29.8675C96.543 30.8239 94.9015 32.1504 93.5829 33.7637C91.0032 37.0016 89.3843 40.8844 88.9066 44.9789C88.4107 48.9089 88.9835 52.9487 87.6413 56.5998C86.9811 58.3608 85.8277 59.8997 84.3158 61.0369C82.9247 62.023 81.6102 63.1107 80.3832 64.2907C79.4217 65.4415 78.7312 66.7892 78.3616 68.2363C77.9919 69.6834 77.9524 71.1937 78.2459 72.6578C78.6751 75.1192 79.7051 77.4401 81.2466 79.419C82.4049 80.9385 83.6981 82.3527 85.1108 83.6448C86.2735 84.7097 87.2139 85.5042 87.838 86.0535C88.1736 86.307 88.4881 86.5868 88.7784 86.8902Z" fill="#455A64"/>
<path d="M157.939 60.5462C158.395 60.0941 158.735 59.5406 158.93 58.9319C159.126 58.0862 159.14 57.2094 158.972 56.358C158.804 55.5065 158.458 54.6991 157.956 53.9878C157.366 53.0496 156.571 52.12 155.767 51.0635C154.85 49.9581 154.18 48.6735 153.801 47.2941C153.459 45.7595 153.395 44.177 153.613 42.6204C153.792 41.0061 154.117 39.3665 154.331 37.6931C154.75 34.5344 154.368 31.3222 153.22 28.3457C152.286 25.9145 150.903 23.6762 149.142 21.745C147.956 20.4408 146.596 19.3034 145.098 18.3644C144.038 17.6967 143.388 17.3924 143.388 17.3586C143.553 17.3994 143.711 17.4619 143.858 17.5446C144.302 17.7438 144.733 17.9695 145.149 18.2207C146.703 19.118 148.115 20.2373 149.338 21.5422C151.167 23.477 152.604 25.7406 153.57 28.2105C154.766 31.2432 155.168 34.5249 154.741 37.7523C154.528 39.4426 154.194 41.0907 154.015 42.6711C153.793 44.181 153.845 45.7178 154.169 47.2096C154.524 48.5382 155.156 49.7789 156.024 50.8522C156.81 51.9087 157.605 52.8637 158.195 53.8356C158.705 54.5847 159.046 55.434 159.193 56.3252C159.341 57.2165 159.292 58.1287 159.05 58.9995C158.893 59.4642 158.633 59.8885 158.289 60.2419C158.187 60.3583 158.069 60.4606 157.939 60.5462Z" fill="#263238"/>
<path d="M45.9796 91.3337C44.0981 85.9862 38.2749 81.8569 32.668 83.038C31.0236 83.4543 29.4819 84.1965 28.1364 85.2197C26.791 86.2429 25.6698 87.5256 24.841 88.9901C24.2123 89.9659 23.6618 90.989 23.1947 92.0498C22.4892 91.1236 21.7191 90.2472 20.8899 89.4272C19.7493 88.1848 18.3662 87.1833 16.8238 86.4833C15.2815 85.7832 13.6117 85.399 11.9152 85.3537C6.18605 85.4374 1.43529 90.7478 0.804989 96.3744C0.17469 102.001 2.94048 107.6 6.8822 111.72C12.1195 117.486 19.304 121.166 27.0894 122.071C33.2889 119.913 40.6173 112.51 43.5242 107.628C46.4311 102.745 47.8705 96.6906 45.9796 91.3337Z" fill="#B700DB"/>
</svg>
