<svg width="74" height="91" viewBox="0 0 74 91" fill="none" xmlns="http://www.w3.org/2000/svg">
<circle opacity="0.3" cx="34.7347" cy="34.7347" r="34.7347" fill="#FF5B92"/>
<circle opacity="0.3" cx="48.3265" cy="64.9389" r="25.6735" fill="#FFA25C"/>
<path d="M54.9047 51.7982C54.2695 51.7982 53.7544 52.3132 53.7544 52.9485V60.886C53.7544 64.0576 51.1741 66.6378 48.0026 66.6378H35.5825C34.9474 66.6378 34.4326 67.1524 34.4321 67.7874L34.4305 70.0745L31.6849 67.3289C31.5071 66.9209 31.1004 66.6378 30.6299 66.6378H23.155C19.9835 66.6378 17.4032 64.0576 17.4032 60.886V43.1704C17.4032 39.9989 19.9835 37.4186 23.155 37.4186H34.7736C35.4088 37.4186 35.9239 36.9036 35.9239 36.2683C35.9239 35.6329 35.4088 35.1179 34.7736 35.1179H23.155C18.7149 35.1179 15.1025 38.7303 15.1025 43.1704V60.886C15.1025 65.3262 18.7149 68.9385 23.155 68.9385H30.0408L34.7654 73.6632C34.9854 73.8832 35.2796 74.0001 35.579 74.0001C35.7271 74.0001 35.8765 73.9715 36.0186 73.9127C36.4485 73.7348 36.7288 73.3157 36.7291 72.8506L36.7319 68.9385H48.0026C52.4427 68.9385 56.0551 65.3262 56.0551 60.886V52.9485C56.0551 52.3132 55.5399 51.7982 54.9047 51.7982Z" fill="#424B54"/>
<path d="M57.2807 15.1018H54.3693C45.1499 15.1018 37.6494 22.6024 37.6494 31.8218C37.6494 41.0413 45.1499 48.5417 54.3692 48.5417H57.2806C58.7196 48.5417 60.1438 48.3589 61.5243 47.9977L65.8251 52.2962C66.0451 52.516 66.3392 52.6329 66.6385 52.6329C66.7868 52.6329 66.9363 52.6042 67.0786 52.5452C67.5084 52.3671 67.7886 51.9477 67.7886 51.4825V44.827C69.6095 43.3523 71.1221 41.4896 72.1837 39.4086C73.3893 37.045 74.0005 34.4925 74.0005 31.8218C74.0005 22.6024 66.5 15.1018 57.2807 15.1018ZM65.9461 43.3472C65.6577 43.5645 65.4879 43.9047 65.4879 44.2661V48.7065L62.6729 45.8929C62.4539 45.6741 62.1601 45.5562 61.8596 45.5562C61.7469 45.5562 61.633 45.5729 61.5219 45.607C60.1526 46.0279 58.7257 46.2411 57.2807 46.2411H54.3693C46.4184 46.2411 39.9501 39.7727 39.9501 31.8218C39.9501 23.871 46.4185 17.4025 54.3693 17.4025H57.2807C65.2315 17.4025 71.6998 23.871 71.6998 31.8218C71.6998 36.3923 69.6027 40.5932 65.9461 43.3472Z" fill="#424B54"/>
<path d="M61.0053 27.6902C60.8393 25.2819 58.8979 23.3405 56.4895 23.1745C55.1243 23.0808 53.8214 23.5413 52.8242 24.4723C51.8406 25.3904 51.2766 26.6882 51.2766 28.0331C51.2766 28.6684 51.7917 29.1834 52.427 29.1834C53.0622 29.1834 53.5773 28.6684 53.5773 28.0331C53.5773 27.3131 53.8674 26.6457 54.3941 26.1542C54.9202 25.6631 55.6079 25.42 56.3315 25.47C57.6001 25.5574 58.6226 26.5799 58.7101 27.8484C58.7984 29.1296 57.9579 30.2618 56.7116 30.5406C55.7018 30.7665 54.9966 31.644 54.9966 32.6744V35.4381C54.9966 36.0735 55.5117 36.5885 56.147 36.5885C56.7823 36.5885 57.2973 36.0735 57.2972 35.4381V32.7663C59.6152 32.2063 61.1703 30.0853 61.0053 27.6902Z" fill="#424B54"/>
<path d="M56.9597 39.1747C56.7458 38.9607 56.449 38.8376 56.1464 38.8376C55.8439 38.8376 55.5471 38.9607 55.3331 39.1747C55.1192 39.3887 54.9961 39.6855 54.9961 39.988C54.9961 40.2917 55.1193 40.5885 55.3331 40.8025C55.5471 41.0164 55.8439 41.1384 56.1464 41.1384C56.449 41.1384 56.7458 41.0164 56.9597 40.8025C57.1737 40.5873 57.2968 40.2917 57.2968 39.988C57.2968 39.6855 57.1736 39.3887 56.9597 39.1747Z" fill="#424B54"/>
<path d="M46.7372 50.7627H22.4648C21.8296 50.7627 21.3145 51.2777 21.3145 51.913C21.3145 52.5483 21.8296 53.0633 22.4648 53.0633H46.7372C47.3725 53.0633 47.8875 52.5483 47.8875 51.913C47.8875 51.2777 47.3724 50.7627 46.7372 50.7627Z" fill="#424B54"/>
<path d="M47.5503 57.5414C47.3365 57.3274 47.0397 57.2043 46.7371 57.2043C46.4346 57.2043 46.1378 57.3274 45.9238 57.5414C45.7098 57.7553 45.5868 58.0521 45.5868 58.3546C45.5868 58.6572 45.7099 58.954 45.9238 59.1679C46.1378 59.3819 46.4346 59.5049 46.7371 59.5049C47.0397 59.5049 47.3365 59.3819 47.5503 59.1679C47.7644 58.954 47.8875 58.6583 47.8875 58.3546C47.8875 58.0521 47.7643 57.7553 47.5503 57.5414Z" fill="#424B54"/>
<path d="M42.2125 57.2043H22.4648C21.8296 57.2043 21.3145 57.7193 21.3145 58.3546C21.3145 58.99 21.8296 59.5049 22.4648 59.5049H42.2125C42.8479 59.5049 43.3629 58.99 43.3629 58.3546C43.3629 57.7193 42.8478 57.2043 42.2125 57.2043Z" fill="#424B54"/>
<path d="M39.2599 44.321H22.4648C21.8296 44.321 21.3145 44.8361 21.3145 45.4715C21.3145 46.1069 21.8296 46.6219 22.4648 46.6219H39.2599C39.8953 46.6219 40.4103 46.1069 40.4103 45.4715C40.4103 44.8361 39.8952 44.321 39.2599 44.321Z" fill="#424B54"/>
</svg>
