<svg width="75" height="79" viewBox="0 0 75 79" fill="none" xmlns="http://www.w3.org/2000/svg">
<circle opacity="0.3" cx="42.4933" cy="46.4283" r="31.7503" transform="rotate(90 42.4933 46.4283)" fill="#FF5B92"/>
<circle opacity="0.3" cx="23.4677" cy="23.4676" r="23.4676" transform="rotate(90 23.4677 23.4676)" fill="#FFA25C"/>
<path d="M66.8408 32.9729C66.2816 31.1714 64.576 29.9686 62.6904 30.0441L62.2882 30.0606C61.1084 30.1087 59.9986 30.5951 59.1675 31.4262L52.9497 37.5787C52.8024 37.3538 52.6334 37.1398 52.4411 36.9402C51.6236 36.0908 50.4785 35.6041 49.2998 35.6041H40.5294C38.8746 35.6041 37.261 35.3895 35.7326 34.9667C31.7519 33.8648 27.9535 34.6603 24.748 37.2669C23.3957 38.367 22.4237 39.5674 21.8275 40.4157C21.1522 39.9462 20.3489 39.7 19.5156 39.7141C18.4588 39.7323 17.473 40.1609 16.7404 40.9224L11.0716 46.8069C10.6529 47.2414 10.6615 47.9321 11.0915 48.3563L15.6503 52.853C16.0834 53.2799 16.7817 53.2754 17.2093 52.842C17.6362 52.4085 17.6317 51.7109 17.1983 51.2833L13.415 47.5519L18.3279 42.4515C18.6511 42.1159 19.0863 41.9263 19.5524 41.9188C20.0229 41.9102 20.4595 42.0853 20.7943 42.4099L29.5599 50.9162C29.8941 51.2407 30.0819 51.6756 30.0885 52.1413C30.095 52.6074 29.9195 53.0474 29.5942 53.3812L24.7665 58.3347L23.5242 57.1514C23.0832 56.7314 22.3856 56.7485 21.9656 57.1895C21.5462 57.6306 21.5634 58.3281 22.0044 58.7475L24.0353 60.6822C24.2489 60.8852 24.5223 60.9862 24.7953 60.9862C25.0825 60.9862 25.3689 60.8746 25.585 60.6534L31.1731 54.9196C31.9099 54.164 32.3072 53.1662 32.2928 52.1111C32.2859 51.6285 32.1925 51.1604 32.0215 50.7242L33.9899 50.4951C34.9031 50.3889 35.8322 50.3347 36.7517 50.3347H50.0962C50.3006 50.3347 50.5074 50.3261 50.711 50.3089L51.9898 50.2024C53.286 50.0949 54.5352 49.645 55.603 48.9024C56.1271 48.5377 56.6025 48.1063 57.016 47.6196L66.0082 37.0402C66.9692 35.9098 67.2801 34.3897 66.8408 32.9729ZM64.3287 35.6124L55.3361 46.1918C55.0459 46.5332 54.7121 46.8361 54.3439 47.0924C53.5941 47.6141 52.7165 47.9297 51.807 48.0056L50.5276 48.1121C50.3851 48.1241 50.2395 48.1303 50.0962 48.1303H36.7517C35.7474 48.1303 34.7324 48.189 33.7354 48.3048L30.548 48.6757L23.4967 41.8765C23.9769 41.1648 24.8592 40.0177 26.139 38.9773C28.8049 36.8097 31.8346 36.175 35.1446 37.091C36.8643 37.5671 38.6761 37.8082 40.5294 37.8082H49.2998C49.8826 37.8082 50.449 38.0493 50.8536 38.469C51.1493 38.776 51.3368 39.1525 51.4141 39.5471C51.4127 39.6467 51.4251 39.746 51.4509 39.8425C51.4801 40.3594 51.3252 40.8863 50.981 41.3146L50.947 41.3572C50.5359 41.8696 49.9228 42.164 49.2654 42.164H41.6302C41.0213 42.164 40.528 42.6572 40.528 43.2658C40.528 43.8748 41.0213 44.3683 41.6302 44.3683H49.2654C50.595 44.3683 51.8345 43.7735 52.6667 42.7359L52.7007 42.6936C53.3382 41.8995 53.6542 40.9385 53.6573 39.9795L60.7216 32.989C61.1647 32.5463 61.7527 32.2883 62.3782 32.2629L62.7807 32.2468C63.6696 32.209 64.4723 32.7774 64.7354 33.6261C64.95 34.3179 64.7979 35.0604 64.3287 35.6124Z" fill="#424B54"/>
<path d="M19.5284 44.2429C17.8825 44.2429 16.5437 45.5821 16.5437 47.2276C16.5437 48.8738 17.8825 50.2129 19.5284 50.2129C21.1743 50.2129 22.5134 48.8738 22.5134 47.2276C22.5134 45.5821 21.1743 44.2429 19.5284 44.2429ZM19.5284 48.0082C19.098 48.0082 18.7477 47.6583 18.7477 47.2276C18.7477 46.7976 19.098 46.4476 19.5284 46.4476C19.9584 46.4476 20.3087 46.7976 20.3087 47.2276C20.3087 47.6583 19.9584 48.0082 19.5284 48.0082Z" fill="#424B54"/>
<path d="M36.9472 42.3266L36.8905 42.34C36.2981 42.479 35.9299 43.0725 36.0697 43.6648C36.1885 44.1724 36.6415 44.5151 37.1416 44.5151C37.2247 44.5151 37.3099 44.5052 37.3944 44.4853L37.4514 44.4722C38.0439 44.3331 38.4114 43.7397 38.2723 43.1473C38.1332 42.5549 37.54 42.1882 36.9472 42.3266Z" fill="#424B54"/>
<path d="M19.3856 53.9907L19.3286 54.0041C18.7361 54.1436 18.3686 54.7363 18.5077 55.3288C18.6269 55.8367 19.0796 56.1791 19.5796 56.1791C19.6634 56.1791 19.7479 56.1699 19.8331 56.1499L19.8898 56.1369C20.4822 55.9978 20.8501 55.4043 20.7106 54.8119C20.5715 54.2191 19.978 53.852 19.3856 53.9907Z" fill="#424B54"/>
<path d="M43.0233 32.7567C49.4557 32.7567 54.6887 27.5237 54.6887 21.0913C54.6887 14.6589 49.4557 9.42554 43.0233 9.42554C40.3848 9.42554 37.8961 10.2849 35.826 11.9102C35.3531 12.2811 34.9055 12.6919 34.4954 13.1315C33.882 13.7886 33.3445 14.5164 32.8983 15.2936C31.8903 17.0504 31.3579 19.0556 31.3579 21.0913C31.3579 27.5237 36.5909 32.7567 43.0233 32.7567ZM34.8104 16.3906C35.1724 15.7597 35.6083 15.1693 36.1066 14.6359C36.4394 14.2787 36.8032 13.9455 37.1868 13.6443C38.8657 12.3268 40.8839 11.6302 43.0233 11.6302C48.2398 11.6302 52.4843 15.8741 52.4843 21.0913C52.4843 26.3082 48.2398 30.5524 43.0233 30.5524C37.8064 30.5524 33.5619 26.3082 33.5619 21.0913C33.5619 19.4396 33.9936 17.8143 34.8104 16.3906Z" fill="#424B54"/>
<path d="M44.0008 24.8633C43.5564 25.1274 42.979 25.2212 42.5875 25.2212C41.8442 25.2212 41.1926 24.3454 41.1926 23.3472C41.1926 22.7386 40.6991 22.245 40.0905 22.245C39.4815 22.245 38.9883 22.7386 38.9883 23.3472C38.9883 25.2562 40.1513 26.8623 41.7168 27.3044C41.7525 27.8811 42.2299 28.3383 42.8155 28.3383C43.4169 28.3383 43.905 27.8564 43.9167 27.2573C45.5086 26.8441 46.8825 25.6588 46.8825 23.5873C46.8825 21.1036 44.3464 19.7486 43.0439 19.7486C43.0274 19.7486 41.4094 19.6047 41.4094 18.5698C41.4094 16.9805 43.0274 16.9359 43.0439 16.9359C43.3503 16.9359 43.723 17.1179 44.0166 17.4116C44.1578 17.5531 44.1729 17.5679 44.1729 18.1621C44.1729 18.7707 44.6668 19.2619 45.2751 19.2619C45.8837 19.2619 46.3776 18.7666 46.3776 18.1576C46.3776 17.4532 46.3776 16.6549 45.5756 15.8526C45.0934 15.371 44.5157 15.0282 43.9146 14.8572C43.881 14.2784 43.4029 13.8188 42.8155 13.8188C42.2069 13.8188 41.7133 14.3128 41.7133 14.9214V14.9935C40.5091 15.4411 39.205 16.5107 39.205 18.5698C39.205 21.0954 41.8301 21.9493 43.036 21.9527C43.3671 21.9795 44.6778 22.56 44.6778 23.587C44.6778 24.1915 44.4693 24.5848 44.0008 24.8633Z" fill="#424B54"/>
</svg>
