<svg width="74" height="69" viewBox="0 0 74 69" fill="none" xmlns="http://www.w3.org/2000/svg">
<circle opacity="0.3" cx="31.1262" cy="37.8737" r="31.0387" transform="rotate(179.838 31.1262 37.8737)" fill="#FF5B92"/>
<circle opacity="0.3" cx="49.9961" cy="23.0062" r="22.9417" transform="rotate(179.838 49.9961 23.0062)" fill="#FFA25C"/>
<path d="M49.9216 13.4949H14.8547C11.2162 13.4949 8.2561 16.455 8.2561 20.0935V42.7173C8.2561 46.3558 11.2162 49.316 14.8547 49.316H24.4227C24.9432 49.316 25.3653 48.8938 25.3653 48.3733C25.3653 47.8528 24.9432 47.4306 24.4227 47.4306H14.8547C12.2558 47.4306 10.1414 45.3162 10.1414 42.7173V20.0935C10.1414 17.4946 12.2558 15.3802 14.8547 15.3802H49.9216C52.5205 15.3802 54.6349 17.4946 54.6349 20.0935V42.7173C54.6349 45.3162 52.5205 47.4306 49.9216 47.4306H43.0276C42.507 47.4306 42.0849 47.8528 42.0849 48.3733V53.4503L36.3414 47.7067C36.1645 47.53 35.9248 47.4306 35.6748 47.4306H33.4251C32.9045 47.4306 32.4824 47.8528 32.4824 48.3733C32.4824 48.8938 32.9045 49.316 33.4251 49.316H35.2844L42.361 56.3926C42.5413 56.5729 42.7824 56.6688 43.0277 56.6687C43.1492 56.6687 43.2717 56.6452 43.3883 56.597C43.7405 56.451 43.9702 56.1073 43.9702 55.726V49.316H49.9216C53.5601 49.316 56.5202 46.3558 56.5202 42.7173V20.0935C56.5202 16.455 53.5601 13.4949 49.9216 13.4949Z" fill="#424B54"/>
<path d="M29.2075 47.7071C29.0322 47.5317 28.789 47.4309 28.5411 47.4309C28.2931 47.4309 28.05 47.5318 27.8746 47.7071C27.6992 47.8825 27.5984 48.1257 27.5984 48.3736C27.5984 48.6215 27.6993 48.8647 27.8746 49.04C28.0499 49.2154 28.2931 49.3163 28.5411 49.3163C28.789 49.3163 29.0322 49.2154 29.2075 49.04C29.3829 48.8647 29.4838 48.6215 29.4838 48.3736C29.4838 48.1257 29.3828 47.8825 29.2075 47.7071Z" fill="#424B54"/>
<path d="M50.9128 21.1667C50.6264 20.9971 50.2715 20.9911 49.9795 21.151L40.8173 26.1705V25.7767C40.8173 23.3701 38.8594 21.4122 36.4529 21.4122H17.6559C15.2494 21.4122 13.2915 23.3701 13.2915 25.7767V37.0322C13.2915 39.4388 15.2494 41.3967 17.6559 41.3967H36.4528C38.8593 41.3967 40.8172 39.4388 40.8172 37.0322V36.6384L49.9794 41.6579C50.1206 41.7352 50.2765 41.7737 50.4323 41.7737C50.5987 41.7737 50.7648 41.7297 50.9128 41.6421C51.1993 41.4724 51.375 41.1641 51.375 40.8311V21.9778C51.375 21.6449 51.1993 21.3365 50.9128 21.1667ZM38.9319 27.7619V35.0471V37.0322C38.9319 38.3992 37.8197 39.5114 36.4528 39.5114H17.6559C16.289 39.5114 15.1768 38.3992 15.1768 37.0322V36.8719H22.2888C22.8094 36.8719 23.2315 36.4498 23.2315 35.9292C23.2315 35.4087 22.8094 34.9866 22.2888 34.9866H15.1768V25.7767C15.1768 24.4097 16.289 23.2975 17.6559 23.2975H36.4528C37.8197 23.2975 38.9319 24.4097 38.9319 25.7767V27.7619ZM49.4897 39.2398L40.8172 34.4887V28.3202L49.4897 23.5691V39.2398Z" fill="#424B54"/>
<path d="M25.566 34.9875H25.5566C25.0361 34.9875 24.6187 35.4097 24.6187 35.9303C24.6187 36.4509 25.0454 36.873 25.566 36.873C26.0865 36.873 26.5087 36.4509 26.5087 35.9303C26.5087 35.4097 26.0865 34.9875 25.566 34.9875Z" fill="#424B54"/>
</svg>
